<svg id="Layer_1" data-name="Layer 1" xmlns="http://www.w3.org/2000/svg" viewBox="0 0 256 256"><defs><style>.cls-1{fill:#00f2d2;}</style></defs><path class="cls-1" d="M198,48a10,10,0,0,1,10,10V198a10,10,0,0,1-10,10H58a10,10,0,0,1-10-10V58A10,10,0,0,1,58,48H198m0-20H58A30,30,0,0,0,28,58V198a30,30,0,0,0,30,30H198a30,30,0,0,0,30-30V58a30,30,0,0,0-30-30Z"/><rect class="cls-1" x="63" y="63" width="58.23" height="57.2" rx="10"/><rect class="cls-1" x="63" y="135.8" width="58.23" height="57.2" rx="10"/><rect class="cls-1" x="134.77" y="135.8" width="58.23" height="57.2" rx="28.6"/><path class="cls-1" d="M159.43,66l-24,47a5,5,0,0,0,4.45,7.28h48a5,5,0,0,0,4.45-7.28l-24-47A5,5,0,0,0,159.43,66Z"/></svg>