<svg id="Layer_1" data-name="Layer 1" xmlns="http://www.w3.org/2000/svg" viewBox="0 0 256 256"><defs><style>.cls-1{fill:#00f2d2;}</style></defs><path class="cls-1" d="M198,48a10,10,0,0,1,10,10V198a10,10,0,0,1-10,10H58a10,10,0,0,1-10-10V58A10,10,0,0,1,58,48H198m0-20H58A30,30,0,0,0,28,58V198a30,30,0,0,0,30,30H198a30,30,0,0,0,30-30V58a30,30,0,0,0-30-30Z"/><rect class="cls-1" x="115.5" y="160.59" width="25" height="25" rx="12.5"/><path class="cls-1" d="M122.35,146.18a27.35,27.35,0,0,1,11.3,0L155.33,76.9a5,5,0,0,0-4.77-6.49H105.44a5,5,0,0,0-4.77,6.49Z"/></svg>