<svg id="Layer_1" data-name="Layer 1" xmlns="http://www.w3.org/2000/svg" viewBox="0 0 256 256"><defs><style>.cls-1{fill:#00f2d2;}</style></defs><path class="cls-1" d="M198,48a10,10,0,0,1,10,10V198a10,10,0,0,1-10,10H58a10,10,0,0,1-10-10V58A10,10,0,0,1,58,48H198m0-20H58A30,30,0,0,0,28,58V198a30,30,0,0,0,30,30H198a30,30,0,0,0,30-30V58a30,30,0,0,0-30-30Z"/><path class="cls-1" d="M95.17,114.54c0-5.39,5-9.75,11.13-9.75h56.27V75.06c0-3.9-3.61-7.06-8.06-7.06H76.06C71.61,68,68,71.16,68,75.06V127c0,3.9,3.61,7.06,8.06,7.06H95.17Z"/><path class="cls-1" d="M178,113.15H114.34a10,10,0,0,0-10,10v44a10,10,0,0,0,10,10H159L179.79,193V177a10,10,0,0,0,8.21-9.84v-44A10,10,0,0,0,178,113.15Z"/></svg>