<svg id="Layer_1" data-name="Layer 1" xmlns="http://www.w3.org/2000/svg" viewBox="0 0 256 256"><defs><style>.cls-1{fill:#00f2d2;}</style></defs><path class="cls-1" d="M198,48a10,10,0,0,1,10,10V198a10,10,0,0,1-10,10H58a10,10,0,0,1-10-10V58A10,10,0,0,1,58,48H198m0-20H58A30,30,0,0,0,28,58V198a30,30,0,0,0,30,30H198a30,30,0,0,0,30-30V58a30,30,0,0,0-30-30Z"/><path class="cls-1" d="M98.33,189l39.77-29a5,5,0,0,0-.45-8.37l-34.5-19.92a5,5,0,0,0-7.47,3.8l-5.27,49A5,5,0,0,0,98.33,189Z"/><rect class="cls-1" x="116.22" y="72.17" width="49.78" height="67.13" rx="5" transform="translate(210.45 267.85) rotate(-150)"/></svg>