<svg xmlns="http://www.w3.org/2000/svg">

<symbol id="account" viewBox="0 0 256 256">
  <title>Account</title>
	<g>
		<path d="M198 48a10 10 0 0110 10v140a10 10 0 01-10 10H58a10 10 0 01-10-10V58a10 10 0 0110-10h140m0-20H58a30 30 0 00-30 30v140a30 30 0 0030 30h140a30 30 0 0030-30V58a30 30 0 00-30-30z" />
		<circle cx="128" cy="120.42" r="34.09" />
		<path d="M128 164.13a51.72 51.72 0 00-51.72 51.73h103.44A51.72 51.72 0 00128 164.13z" />
	</g>
</symbol>

<symbol id="announcements" viewBox="0 0 256 256">
  <title>Announcements</title>
	<g>
		<path d="M198 48a10 10 0 0110 10v140a10 10 0 01-10 10H58a10 10 0 01-10-10V58a10 10 0 0110-10h140m0-20H58a30 30 0 00-30 30v140a30 30 0 0030 30h140a30 30 0 0030-30V58a30 30 0 00-30-30z" />
		<rect x="115.5" y="160.59" width="25" height="25" rx="12.5" />
		<path d="M122.35 146.18a27.35 27.35 0 0111.3 0l21.68-69.28a5 5 0 00-4.77-6.49h-45.12a5 5 0 00-4.77 6.49z" />
	</g>
</symbol>

<symbol id="assignments" viewBox="0 0 256 256">
  <title>Assignments</title>
	<g>
		<path d="M198,48a10,10,0,0,1,10,10V198a10,10,0,0,1-10,10H58a10,10,0,0,1-10-10V58A10,10,0,0,1,58,48H198m0-20H58A30,30,0,0,0,28,58V198a30,30,0,0,0,30,30H198a30,30,0,0,0,30-30V58a30,30,0,0,0-30-30Z" />
		<path d="M98.33,189l39.77-29a5,5,0,0,0-.45-8.37l-34.5-19.92a5,5,0,0,0-7.47,3.8l-5.27,49A5,5,0,0,0,98.33,189Z" />
		<rect x="116.22" y="72.17" width="49.78" height="67.13" rx="5" transform="translate(210.45 267.85) rotate(-150)" />
	</g>
</symbol>

<symbol id="calendar" viewBox="0 0 256 256">
  <title>Calendar</title>
	<g>
		<path d="M198,48a10,10,0,0,1,10,10V198a10,10,0,0,1-10,10H58a10,10,0,0,1-10-10V58A10,10,0,0,1,58,48H198m0-20H58A30,30,0,0,0,28,58V198a30,30,0,0,0,30,30H198a30,30,0,0,0,30-30V58a30,30,0,0,0-30-30Z" />
		<rect x="63" y="63" width="58.23" height="57.2" rx="10" />
		<rect x="134.77" y="63" width="58.23" height="57.2" rx="10" />
		<rect x="63" y="135.8" width="58.23" height="57.2" rx="10" />
		<rect x="134.77" y="135.8" width="58.23" height="57.2" rx="10" />
	</g>
</symbol>

<symbol id="class" viewBox="0 0 256 256">
  <title>Class</title>
	<g>
		<path d="M198,48a10,10,0,0,1,10,10V198a10,10,0,0,1-10,10H58a10,10,0,0,1-10-10V58A10,10,0,0,1,58,48H198m0-20H58A30,30,0,0,0,28,58V198a30,30,0,0,0,30,30H198a30,30,0,0,0,30-30V58a30,30,0,0,0-30-30Z" />
		<circle cx="128" cy="128" r="60" />
	</g>
</symbol>

<symbol id="dashboard" viewBox="0 0 256 256">
  <title>Dashboard</title>
	<g>
		<path d="M195.22 48a10 10 0 0110 10v140a10 10 0 01-10 10h-140a10 10 0 01-10-10V58a10 10 0 0110-10h140m0-20h-140a30 30 0 00-30 30v140a30 30 0 0030 30h140a30 30 0 0030-30V58a30 30 0 00-30-30z" />
		<rect x="60.22" y="66" width="130" height="30" rx="10" />
		<rect x="60.22" y="113" width="130" height="30" rx="10" />
		<rect x="60.22" y="160" width="130" height="30" rx="10" />
	</g>
</symbol>

<symbol id="default" viewBox="0 0 256 256">
  <title>Default</title>
	<g>
		<path d="M198,48a10,10,0,0,1,10,10V198a10,10,0,0,1-10,10H58a10,10,0,0,1-10-10V58A10,10,0,0,1,58,48H198m0-20H58A30,30,0,0,0,28,58V198a30,30,0,0,0,30,30H198a30,30,0,0,0,30-30V58a30,30,0,0,0-30-30Z" />
	</g>
</symbol>

<symbol id="discussions" viewBox="0 0 256 256">
  <title>Discussions</title>
	<g>
		<path d="M198,48a10,10,0,0,1,10,10V198a10,10,0,0,1-10,10H58a10,10,0,0,1-10-10V58A10,10,0,0,1,58,48H198m0-20H58A30,30,0,0,0,28,58V198a30,30,0,0,0,30,30H198a30,30,0,0,0,30-30V58a30,30,0,0,0-30-30Z" />
		<path d="M95.17,114.54c0-5.39,5-9.75,11.13-9.75h56.27V75.06c0-3.9-3.61-7.06-8.06-7.06H76.06C71.61,68,68,71.16,68,75.06V127c0,3.9,3.61,7.06,8.06,7.06H95.17Z" />
		<path d="M178,113.15H114.34a10,10,0,0,0-10,10v44a10,10,0,0,0,10,10H159L179.79,193V177a10,10,0,0,0,8.21-9.84v-44A10,10,0,0,0,178,113.15Z" />
	</g>
</symbol>

<symbol id="group" viewBox="0 0 256 256">
  <title>Group</title>
	<g>
		<path d="M198,48a10,10,0,0,1,10,10V198a10,10,0,0,1-10,10H58a10,10,0,0,1-10-10V58A10,10,0,0,1,58,48H198m0-20H58A30,30,0,0,0,28,58V198a30,30,0,0,0,30,30H198a30,30,0,0,0,30-30V58a30,30,0,0,0-30-30Z" />
		<circle cx="174.65" cy="151.09" r="24.88" />
		<path d="M174.65,178.11a37.75,37.75,0,0,0-37.74,37.75H212.4A37.75,37.75,0,0,0,174.65,178.11Z" />
		<circle cx="100.05" cy="120.42" r="34.09" />
		<path d="M141.51,184.92a51.73,51.73,0,0,0-93.18,30.94H128A42.07,42.07,0,0,1,141.51,184.92Z" />
	</g>
</symbol>

<symbol id="home" viewBox="0 0 256 256">
  <title>Home</title>
	<g>
		<path d="M198,48a10,10,0,0,1,10,10V198a10,10,0,0,1-10,10H58a10,10,0,0,1-10-10V58A10,10,0,0,1,58,48H198m0-20H58A30,30,0,0,0,28,58V198a30,30,0,0,0,30,30H198a30,30,0,0,0,30-30V58a30,30,0,0,0-30-30Z" />
		<rect x="68" y="68" width="120" height="120" rx="10" />
	</g>
</symbol>

<symbol id="inbox" viewBox="0 0 256 256">
  <title>Inbox</title>
	<g>
		<path d="M195.22,48a10,10,0,0,1,10,10V198a10,10,0,0,1-10,10h-140a10,10,0,0,1-10-10V58a10,10,0,0,1,10-10h140m0-20h-140a30,30,0,0,0-30,30V198a30,30,0,0,0,30,30h140a30,30,0,0,0,30-30V58a30,30,0,0,0-30-30Z" />
		<path d="M115,178.75l-50-86.53a15,15,0,0,1,13-22.5H178a15,15,0,0,1,13,22.5l-50,86.53A15,15,0,0,1,115,178.75Z" />
	</g>
</symbol>

<symbol id="locked" viewBox="0 0 256 256">
  <title>Locked</title>
	<g>
		<path d="M185.42,114.4V83h-.06A57.41,57.41,0,0,0,70.64,83h-.06v31.4a21.53,21.53,0,0,0-14.36,20.29v71.78A21.53,21.53,0,0,0,77.75,228h100.5a21.53,21.53,0,0,0,21.53-21.53V134.69A21.53,21.53,0,0,0,185.42,114.4ZM128,56.71a28.71,28.71,0,0,1,28.71,28.71v27.73H99.29V85.42A28.71,28.71,0,0,1,128,56.71Z" />
	</g>
</symbol>

<symbol id="modules" viewBox="0 0 256 256">
  <title>Modules</title>
	<g>
		<path d="M198,48a10,10,0,0,1,10,10V198a10,10,0,0,1-10,10H58a10,10,0,0,1-10-10V58A10,10,0,0,1,58,48H198m0-20H58A30,30,0,0,0,28,58V198a30,30,0,0,0,30,30H198a30,30,0,0,0,30-30V58a30,30,0,0,0-30-30Z" />
		<rect x="63" y="63" width="58.23" height="57.2" rx="10" />
		<rect x="63" y="135.8" width="58.23" height="57.2" rx="10" />
		<rect x="134.77" y="135.8" width="58.23" height="57.2" rx="28.6" />
		<path d="M159.43,66l-24,47a5,5,0,0,0,4.45,7.28h48a5,5,0,0,0,4.45-7.28l-24-47A5,5,0,0,0,159.43,66Z" />
	</g>
</symbol>

<symbol id="refresh" viewBox="0 0 256 256">
  <title>Refresh</title>
	<g>
		<path d="M128,38A90,90,0,0,0,49.94,83.17H96.15a55,55,0,1,1-17,70.1H93a5,5,0,0,0,3.85-8.19L63.51,104.74a5,5,0,0,0-7.7,0L22.44,145.08a5,5,0,0,0,3.85,8.19H41.6A90,90,0,1,0,128,38Z" />
	</g>
</symbol>

<symbol id="studio" viewBox="0 0 256 256">
  <title>Studio</title>
	<g>
		<path d="M195.22,48a10,10,0,0,1,10,10V198a10,10,0,0,1-10,10h-140a10,10,0,0,1-10-10V58a10,10,0,0,1,10-10h140m0-20h-140a30,30,0,0,0-30,30V198a30,30,0,0,0,30,30h140a30,30,0,0,0,30-30V58a30,30,0,0,0-30-30Z" />
		<circle cx="125.22" cy="128" r="65" />
	</g>
</symbol>

<symbol id="uparrow" viewBox="0 0 256 256">
  <title>Up Arrow</title>
	<g>
		<path d="M191.66,105l-59.81-72.3a5,5,0,0,0-7.7,0L64.34,105a5,5,0,0,0,3.85,8.19H103V223a5,5,0,0,0,5,5h40a5,5,0,0,0,5-5V113.15h34.81A5,5,0,0,0,191.66,105Z" />
	</g>
</symbol>

</svg>