<svg id="Layer_1" data-name="Layer 1" xmlns="http://www.w3.org/2000/svg" viewBox="0 0 256 256"><defs><style>.cls-1{fill:#00f2d2;}</style></defs><path class="cls-1" d="M198,48a10,10,0,0,1,10,10V198a10,10,0,0,1-10,10H58a10,10,0,0,1-10-10V58A10,10,0,0,1,58,48H198m0-20H58A30,30,0,0,0,28,58V198a30,30,0,0,0,30,30H198a30,30,0,0,0,30-30V58a30,30,0,0,0-30-30Z"/><circle class="cls-1" cx="174.65" cy="151.09" r="24.88"/><path class="cls-1" d="M174.65,178.11a37.75,37.75,0,0,0-37.74,37.75H212.4A37.75,37.75,0,0,0,174.65,178.11Z"/><circle class="cls-1" cx="100.05" cy="120.42" r="34.09"/><path class="cls-1" d="M141.51,184.92a51.73,51.73,0,0,0-93.18,30.94H128A42.07,42.07,0,0,1,141.51,184.92Z"/></svg>