<svg id="Layer_1" data-name="Layer 1" xmlns="http://www.w3.org/2000/svg" viewBox="0 0 256 256"><defs><style>.cls-1{fill:#00f2d2;}</style></defs><path class="cls-1" d="M195.22,48a10,10,0,0,1,10,10V198a10,10,0,0,1-10,10h-140a10,10,0,0,1-10-10V58a10,10,0,0,1,10-10h140m0-20h-140a30,30,0,0,0-30,30V198a30,30,0,0,0,30,30h140a30,30,0,0,0,30-30V58a30,30,0,0,0-30-30Z"/><path class="cls-1" d="M112.23,178.9,62.12,92.1a15,15,0,0,1,13-22.5H175.33a15,15,0,0,1,13,22.5l-50.11,86.8A15,15,0,0,1,112.23,178.9Z"/></svg>