<svg id="Layer_1" data-name="Layer 1" xmlns="http://www.w3.org/2000/svg" viewBox="0 0 256 256"><defs><style>.cls-1{fill:#00f2d2;}</style></defs><path class="cls-1" d="M198,48a10,10,0,0,1,10,10V198a10,10,0,0,1-10,10H58a10,10,0,0,1-10-10V58A10,10,0,0,1,58,48H198m0-20H58A30,30,0,0,0,28,58V198a30,30,0,0,0,30,30H198a30,30,0,0,0,30-30V58a30,30,0,0,0-30-30Z"/><circle class="cls-1" cx="128" cy="120.42" r="34.09"/><path class="cls-1" d="M128,164.13a51.72,51.72,0,0,0-51.72,51.73H179.72A51.72,51.72,0,0,0,128,164.13Z"/></svg>