
<svg display="none" xmlns="http://www.w3.org/2000/svg">

  <symbol id="flipgrid" viewBox="0 0 24 24" xmlns="http://www.w3.org/2000/svg">
    <path d="M1.1 9.5v1.1h2.4s.1 0 .1.1v.9s0 .1-.1.1H1.1v2.1s0 .1-.1.1H0s-.1 0-.1-.1V8.6s0-.1.1-.1h3.5s.1 0 .1.1v.9s0 .1-.1.1l-2.4-.1zM5.1 8.6v5.2s0 .1-.1.1h-.9s-.1 0-.1-.1V8.6s0-.1.1-.1l1 .1c-.1-.1 0-.1 0 0zM6.6 9.8v4s0 .1-.1.1h-.9s-.1 0-.1-.1v-4s0-.1.1-.1l1 .1c-.1 0 0 0 0 0zM6.6 9c0 .1 0 .3-.1.4-.2.1-.3.2-.5.2s-.3 0-.4-.1c-.1-.2-.1-.3-.1-.5 0-.1 0-.3.1-.4.1-.1.3-.1.4-.1.2 0 .3 0 .4.1.1.1.2.3.2.4zM10.8 10.7c-.1-.2-.2-.3-.3-.4-.1-.1-.2-.2-.4-.3-.3-.2-.6-.3-1-.3-.3 0-.5.1-.8.2l-.2.2v-.3s0-.1-.1-.1h-.9s-.1 0-.1.1v5.6s0 .1.1.1H8s.1 0 .1-.1v-1.8c.1.1.2.1.3.2.2.1.5.2.8.2.3 0 .7-.1 1-.3.3-.2.5-.4.7-.8.2-.3.2-.7.2-1.1 0-.4-.1-.8-.3-1.1zM9 12.9c-.2 0-.4 0-.5-.1-.2-.1-.3-.2-.4-.4 0-.2-.1-.4-.1-.6s0-.4.1-.6c.1-.2.2-.3.4-.4.2-.1.3-.1.5-.1s.4 0 .5.1c.2.1.3.2.4.4.1.2.1.4.1.6 0 .2 0 .4-.1.6 0 .1-.1.2-.2.2s-.1.1-.2.2-.3.1-.5.1zM15.3 9.8h-.9s-.1 0-.1.1v.3c-.1-.2-.2-.3-.3-.3-.3-.1-.5-.2-.8-.2-.4 0-.7.1-1 .3-.3.2-.6.4-.7.8-.2.3-.3.7-.3 1.1s.1.8.3 1.1c.2.3.4.6.7.8.3.2.7.3 1 .3.3 0 .6-.1.8-.2.1-.1.2-.1.3-.2v.1c0 .3-.1.6-.3.7-.2.2-.4.2-.8.2-.2 0-.4 0-.6-.1-.2-.1-.4-.1-.5-.2l-.1-.1-.3.7v.1h.1c.2.1.4.3.7.4.3.1.6.1.9.1.6 0 1.1-.2 1.5-.5.4-.3.6-.9.6-1.5l-.2-3.8c.1 0 .1 0 0 0zm-2 3.1c-.2 0-.4 0-.5-.1-.2-.1-.3-.2-.4-.4-.1-.2-.1-.4-.1-.6 0-.2 0-.4.1-.6.1-.2.2-.3.4-.4.2-.1.3-.1.5-.1s.4 0 .6.1c.2.1.3.2.4.4.1.2.1.4.1.6s0 .4-.1.6c0 .1-.1.2-.2.2l-.2.2c-.2.1-.4.1-.6.1zM18.4 9.9l-.2 1h-.1c-.1 0-.2-.1-.3-.1-.1 0-.3 0-.4.1l-.3.3c-.1.1-.1.3-.1.4v2.2s0 .1-.1.1H16s-.1 0-.1-.1v-4s0-.1.1-.1h.9s.1 0 .1.1v.3c.1-.1.2-.1.3-.2.2-.2.5-.3.8-.3.2 0 .4 0 .5.1l-.2.2c0-.1 0-.1 0 0zM19.7 9c0 .1 0 .3-.1.4-.1.1-.2.2-.4.2s-.3 0-.4-.1c-.1-.1-.1-.2-.1-.4 0-.1 0-.3.1-.4.1-.1.2-.2.4-.2s.3 0 .4.1.1.3.1.4zM19.7 9.8v4s0 .1-.1.1h-.9s-.1 0-.1-.1v-4s0-.1.1-.1l1 .1c-.1 0 0 0 0 0z"/><g><path class="st0" d="M23.9 8.5H23s-.1 0-.1.1V10c-.1-.1-.2-.1-.3-.2-.2-.1-.5-.2-.8-.2-.4 0-.7.1-1 .3-.3.2-.5.4-.7.8-.2.3-.3.7-.3 1.1 0 .4.1.6.3 1 .2.3.4.6.7.8.3.2.6.3 1 .3.3 0 .5-.1.8-.2.1-.1.2-.1.3-.2v.3s0 .1.1.1h.9s.1 0 .1-.1l-.1-5.3c.1 0 .1 0 0 0zm-1 3.8c-.1.2-.2.3-.4.4-.1.1-.3.1-.5.1s-.4 0-.5-.1c-.2-.1-.3-.2-.4-.4-.1-.2-.1-.3-.1-.5s0-.4.1-.6c.1-.2.2-.3.4-.4.1-.1.3-.1.5-.1s.4 0 .5.1c.2.1.3.2.4.4.1.2.1.4.1.6 0 .2-.1.3-.1.5z"/></g>
  </symbol>

  <symbol id="googledrive" viewBox="0 0 24 24" xmlns="http://www.w3.org/2000/svg">
    <path d="M4.433 22.396l4-6.929H24l-4 6.929H4.433zm3.566-6.929l-3.998 6.929L0 15.467 7.785 1.98l3.999 6.931-3.785 6.556zm15.784-.375h-7.999L7.999 1.605h8.002l7.785 13.486h-.003z"/>
  </symbol>

  <symbol id="khanacademy" viewBox="0 0 24 24" xmlns="http://www.w3.org/2000/svg">
    <path d="M21.724 4.973L13.418.328a3.214 3.214 0 0 0-2.828 0L2.276 4.973A3.05 3.05 0 0 0 .862 7.371v9.256a3.05 3.05 0 0 0 1.414 2.4l8.306 4.645a3.214 3.214 0 0 0 2.828 0l8.314-4.645a3.05 3.05 0 0 0 1.414-2.4V7.373a3.05 3.05 0 0 0-1.414-2.4zM12 4.921a2.571 2.571 0 1 1 .001 5.143A2.571 2.571 0 0 1 12 4.92zm3.094 13.627a9.119 9.119 0 0 1-3.103.549 8.972 8.972 0 0 1-3.076-.55 8.493 8.493 0 0 1-5.486-7.987v-.857c4.646.017 8.074 3.823 8.074 8.51v.198h.926v-.197c0-4.688 3.445-8.51 8.056-8.51.026.29.043.582.086.856a8.502 8.502 0 0 1-5.477 7.988z"/>
  </symbol>

  <symbol id="microsoftonenote" viewBox="0 0 24 24" xmlns="http://www.w3.org/2000/svg">
    <path d="M23 1.5Q23.41 1.5 23.7 1.8 24 2.09 24 2.5V21.5Q24 21.91 23.7 22.2 23.41 22.5 23 22.5H7Q6.59 22.5 6.3 22.2 6 21.91 6 21.5V18H1Q0.59 18 0.3 17.7 0 17.41 0 17V7Q0 6.59 0.3 6.3 0.58 6 1 6H6V2.5Q6 2.09 6.3 1.8 6.59 1.5 7 1.5ZM4.56 11 7.39 15.93H9.18V8.07H7.44V13.1L4.71 8.07H2.82V15.93H4.56ZM22.5 21V18H19.5V21ZM22.5 16.5V13.5H19.5V16.5ZM22.5 12V9H19.5V12ZM22.5 7.5V3H7.5V6H11Q11.41 6 11.7 6.3 12 6.59 12 7V17Q12 17.41 11.7 17.7 11.41 18 11 18H7.5V21H18V7.5Z"/>
  </symbol>

  <symbol id="zoom" viewBox="0 0 24 24" xmlns="http://www.w3.org/2000/svg">
    <path d="M4.587 13.63l-.27-.012H1.89l3.235-3.235-.013-.27a.815.815 0 0 0-.795-.795l-.27-.013H.004l.014.27c.034.438.353.77.794.795l.27.013H3.51L.273 13.618l.014.269c.015.433.362.78.795.796l.27.013h4.044l-.014-.27c-.036-.443-.35-.767-.795-.795zm3.237-4.325H7.82a2.695 2.695 0 1 0 .003 0zm1.141 3.839a1.618 1.618 0 1 1-2.288-2.287 1.618 1.618 0 0 1 2.288 2.287zm12.872-3.838a2.157 2.157 0 0 0-1.615.729 2.152 2.152 0 0 0-1.618-.731 2.147 2.147 0 0 0-1.208.37c-.21-.233-.68-.37-.948-.37v5.392l.27-.013c.45-.03.777-.349.795-.796l.013-.27V11.73l.014-.27c.01-.202.04-.382.132-.54a1.078 1.078 0 0 1 1.473-.393 1.078 1.078 0 0 1 .392.392c.093.16.12.339.132.54l.014.271v1.887l.013.269c.027.44.35.768.795.796l.27.013V11.73l.012-.27c.01-.2.04-.384.134-.543.299-.514.959-.69 1.473-.39a1.078 1.078 0 0 1 .392.393c.092.16.12.343.131.54l.014.27v1.887l.013.269c.028.443.35.77.796.796l.27.013V11.46a2.157 2.157 0 0 0-2.16-2.155zm-10.26.788a2.696 2.696 0 1 0 3.81 3.813 2.696 2.696 0 0 0-3.81-3.813zm3.049 3.05a1.618 1.618 0 1 1-2.288-2.288 1.618 1.618 0 0 1 2.288 2.288z"/>
  </symbol>

</svg>
